<svg xmlns="http://www.w3.org/2000/svg" width="600" height="635" viewBox="0 0 600 635" role="img" aria-labelledby="title desc">
  <title id="title">SIGNALCORE public GitHub telemetry</title>
  <desc id="desc">Public repository count, repository-language counts and current-main host CI states. Activity is not engineering quality; host CI is not hardware validation.</desc>
  <rect width="600" height="635" rx="14" fill="#FFFFFF" stroke="#D0DFEA" stroke-width="2"/>
  <text x="30" y="44" fill="#087F95" font-family="Consolas, ui-monospace, monospace" font-size="16" letter-spacing="1">SIGNALCORE / PUBLIC METRICS</text>
  <text x="30" y="83" fill="#102033" font-family="Segoe UI, Arial, sans-serif" font-size="27" font-weight="650">15 public repositories</text>
  <text x="30" y="112" fill="#3A536B" font-family="Consolas, ui-monospace, monospace" font-size="15">Primary language / repo: C 5, Python 2</text>
  <text x="30" y="138" fill="#526B80" font-family="Consolas, ui-monospace, monospace" font-size="15">Refreshed: 2026-10-10 02:55 UTC</text>
  <path d="M24 157H576" stroke="#D0DFEA" stroke-width="2"/>
  <g font-family="Consolas, ui-monospace, monospace">
    <text x="30" y="179" fill="#526B80" font-size="14">PROJECT / HOST SCOPE</text>
    <text x="432" y="179" fill="#526B80" font-size="14">CI / MAIN SHA</text>
    <path d="M24 241H576" stroke="#D0DFEA"/><text x="30" y="209" fill="#102033" font-size="19">Python Host</text><text x="432" y="209" fill="#0F765E" font-size="17" font-weight="700">PASS</text><text x="30" y="233" fill="#3A536B" font-size="16">Host app</text><text x="432" y="233" fill="#526B80" font-size="15">fa8c133d</text><path d="M24 314H576" stroke="#D0DFEA"/><text x="30" y="282" fill="#102033" font-size="19">Embedded C/C++</text><text x="432" y="282" fill="#0F765E" font-size="17" font-weight="700">PASS</text><text x="30" y="306" fill="#3A536B" font-size="16">Portable core</text><text x="432" y="306" fill="#526B80" font-size="15">08701159</text><path d="M24 387H576" stroke="#D0DFEA"/><text x="30" y="355" fill="#102033" font-size="19">C51 Planner</text><text x="432" y="355" fill="#0F765E" font-size="17" font-weight="700">PASS</text><text x="30" y="379" fill="#3A536B" font-size="16">Planner core</text><text x="432" y="379" fill="#526B80" font-size="15">c723c5b1</text><path d="M24 460H576" stroke="#D0DFEA"/><text x="30" y="428" fill="#102033" font-size="19">STC89 Terminal</text><text x="432" y="428" fill="#0F765E" font-size="17" font-weight="700">PASS</text><text x="30" y="452" fill="#3A536B" font-size="16">Portable core</text><text x="432" y="452" fill="#526B80" font-size="15">bd788313</text><path d="M24 533H576" stroke="#D0DFEA"/><text x="30" y="501" fill="#102033" font-size="19">STC8 UART</text><text x="432" y="501" fill="#0F765E" font-size="17" font-weight="700">PASS</text><text x="30" y="525" fill="#3A536B" font-size="16">Portable core</text><text x="432" y="525" fill="#526B80" font-size="15">549dfd64</text>
    <text x="30" y="610" fill="#526B80" font-size="14">PASS = current-main host CI only.</text>
  </g>
</svg>
